<?xml version="1.0" encoding="utf-8"?>
<!-- Generator: Adobe Illustrator 26.0.3, SVG Export Plug-In . SVG Version: 6.00 Build 0)  -->
<svg version="1.1" id="Layer_1" xmlns="http://www.w3.org/2000/svg" xmlns:xlink="http://www.w3.org/1999/xlink" x="0px" y="0px"
	 viewBox="0 0 52 52" style="enable-background:new 0 0 52 52;" xml:space="preserve">
<style type="text/css">
	.st0{fill:#407BFF;}
	.st1{fill:#FFFFFF;}
</style>
<g>
	<circle class="st0" cx="17.2" cy="17.2" r="17.6"/>
	<path class="st1" d="M17.2,35.5C7.2,35.5-1,27.3-1,17.2S7.2-1,17.2-1s18.2,8.2,18.2,18.2S27.3,35.5,17.2,35.5z M17.2,0.3
		c-9.4,0-17,7.6-17,17s7.6,17,17,17s17-7.6,17-17S26.6,0.3,17.2,0.3z"/>
</g>
<g>
	<polygon class="st1" points="22.8,8.6 17.2,14.2 11.6,8.6 8.6,11.6 14.2,17.2 8.6,22.8 11.6,25.9 17.2,20.3 22.8,25.9 25.9,22.8 
		20.3,17.2 25.9,11.6 	"/>
</g>
<g>
	<circle class="st0" cx="34.8" cy="34.8" r="17.6"/>
	<path class="st1" d="M34.8,53c-10,0-18.2-8.2-18.2-18.2s8.2-18.2,18.2-18.2S53,24.7,53,34.8S44.8,53,34.8,53z M34.8,17.8
		c-9.4,0-17,7.6-17,17c0,9.4,7.6,17,17,17s17-7.6,17-17C51.7,25.4,44.1,17.8,34.8,17.8z"/>
</g>
<g>
	<polygon class="st1" points="45.6,29.2 42.6,26.1 31.2,37.5 26.9,33.2 23.9,36.3 31,43.4 31.2,43.2 31.4,43.4 	"/>
</g>
</svg>
