<?xml version="1.0" encoding="utf-8"?>
<!-- Generator: Adobe Illustrator 26.0.3, SVG Export Plug-In . SVG Version: 6.00 Build 0)  -->
<svg version="1.1" id="Layer_1" xmlns="http://www.w3.org/2000/svg" xmlns:xlink="http://www.w3.org/1999/xlink" x="0px" y="0px"
	 viewBox="0 0 45.5 45.5" style="enable-background:new 0 0 45.5 45.5;" xml:space="preserve">
<style type="text/css">
	.st0{fill:#407BFF;}
</style>
<path class="st0" d="M22.7,0C10.2,0,0,10.2,0,22.8s10.2,22.7,22.7,22.7s22.7-10.2,22.7-22.7S35.3,0,22.7,0z M37.8,15.6
	c-0.1,0-0.1,0.1-0.2,0.1c-1.1,0.1-1.9,0.7-2.3,1.7c-1.3,2.9-2.5,5.8-3.8,8.7c-1.2,2.7-2.3,5.3-3.5,8c-0.1,0.2-0.2,0.4-0.5,0.4
	s-0.4-0.1-0.5-0.4c-1.2-2.8-2.3-5.5-3.5-8.3c-0.1-0.1-0.1-0.3-0.2-0.5c-0.1,0.2-0.2,0.4-0.3,0.5c-1.4,2.7-2.8,5.5-4.2,8.2
	c-0.1,0.3-0.3,0.4-0.6,0.4c-0.3,0-0.4-0.2-0.5-0.4c-2.2-5-4.3-9.9-6.5-14.9c-0.5-1.2-1.3-2.3-2.4-3c-0.4-0.2-0.8-0.4-1.2-0.6
	c0-0.1,0-0.3,0-0.5c2.5,0,5,0,7.6,0c0.1,0.6,0.1,0.6-0.4,0.7c-0.3,0.1-0.7,0.2-1,0.4c-0.6,0.3-0.7,0.8-0.5,1.4
	c0.8,1.8,1.6,3.6,2.3,5.3c1.1,2.5,2.2,5.1,3.3,7.6c0.1,0.1,0.1,0.2,0.2,0.4c0.1-0.1,0.1-0.2,0.2-0.3c1.1-2,2.1-4,3.2-6.1
	c0.1-0.2,0.1-0.4,0-0.7c-1-2.2-2-4.4-3-6.6c-0.5-1.1-1.3-1.5-2.3-1.5c-0.2,0-0.4,0-0.6,0c0-0.2,0-0.4,0-0.6c2.2,0,4.4,0,6.7,0
	c0,0.2,0,0.4,0,0.6c-0.3,0.1-0.6,0.1-0.9,0.2c-0.5,0.2-0.7,0.6-0.5,1.1c0.7,1.6,1.5,3.2,2.2,4.8c0,0,0,0,0.1,0.1
	c0.2-0.4,0.4-0.7,0.5-1.1c0.5-1.1,1.1-2.3,1.6-3.4c0.4-0.8,0.2-1.3-0.7-1.4c-0.3-0.1-0.6-0.1-1-0.1c0-0.2,0-0.4,0-0.6
	c1.9,0,3.8,0,5.8,0c0,0.2,0,0.3,0,0.6c-0.1,0-0.3,0.1-0.4,0.1c-1.1,0.2-2,0.8-2.5,1.9c-0.8,1.7-1.6,3.4-2.4,5.1
	c-0.1,0.2-0.1,0.4,0,0.7c1,2.3,2.1,4.6,3.1,7.1c0.1-0.2,0.1-0.3,0.2-0.4c1.8-4.2,3.6-8.4,5.5-12.6c0.1-0.3,0.1-0.6-0.1-0.8
	c-0.4-0.5-1-0.7-1.6-0.8c-0.1,0-0.2,0-0.4-0.1c0-0.2,0-0.4,0-0.6c2,0,4,0,6,0C37.8,15.2,37.8,15.4,37.8,15.6z"/>
</svg>
